<svg version="1.0" width="552.51508pt" height="460.26257pt" viewBox="0 0 552.51508 460.26257" preserveAspectRatio="xMidYMid" id="svg6" xmlns="http://www.w3.org/2000/svg" xmlns:svg="http://www.w3.org/2000/svg"><defs id="defs6"/><g transform="matrix(0.1,0,0,-0.1,-238.11695,821.58933)" fill="#000" stroke="none" id="g6" style="fill:#fff"><path d="m3315 8214c-114-17-215-51-215-73 0-4 46-11 103-14 164-10 356-66 402-117 26-28 16-32-46-18-75 18-397 17-469-1-123-30-253-90-343-157-189-142-304-321-352-547-15-70-19-271-6-317 6-21 10-15 25 40 33 119 102 236 191 325 70 71 90 85 165 114 261 104 540 1 660-242 55-112 67-198 52-355-15-161-74-382-1e2-382-16 0-21 26-33 168-6 75-17 171-25 212-26 140-111 271-211 327l-39 22 36-72 35-71v-145c-1-131-4-159-33-272-18-70-55-196-82-280-64-194-115-391-130-494-18-135-25-432-11-535 7-50 10-94 7-97-20-20-74 84-124 237-38 114-62 256-62 363 0 162 86 582 149 730 24 57 17 59-26 9-80-97-170-295-232-507-109-378-82-774 77-1130 94-211 271-469 409-595 111-102 254-2e2 389-267 74-36 133-71 131-77-6-18-173-12-251 9-38 9-106 34-150 55-124 57-360 223-501 351-29 27-56 49-59 49-16 0-4-85 18-128 59-116 278-330 443-435 287-180 496-250 828-278 156-12 269-6 430 26 155 31 225 55 355 120 123 62 211 120 330 219 47 38 87 72 89 73 11 7-13 12-127 23-280 26-518 121-710 283-164 138-262 262-346 438-78 161-115 365-96 527 32 278 154 557 421 962 139 210 166 259 213 372 72 175 101 391 77 583-48 391-345 753-741 902-108 41-226 63-360 67-69 3-138 2-155 0z" id="path1" style="fill:#fff"/><path d="m6551 7958-12-72 55-55c56-58 121-152 127-186 4-17 16-21 79-27 41-5 87-12 103-17 37-13 36 4-5 83-33 61-90 123-250 268l-85 77z" id="path2" style="fill:#fff"/><path d="m6291 7928c-12-40-27-112-33-160-21-180 42-328 191-448 74-60 161-144 161-157 0-15-95 4-155 31-27 12-72 41-98 64l-48 42-68-87c-129-167-315-322-516-431-93-50-219-106-435-192-201-81-310-136-445-225-203-134-333-264-462-458-167-252-254-523-253-786 1-187 32-306 117-444 122-196 269-317 471-386 209-71 306-83 787-101 524-19 656-41 793-130 33-21 70-43 82-50l23-12-6 78c-13 148-98 269-239 339-151 74-296 71-648-14-132-32-2e2-28-2e2 13 0 25 22 48 95 96 112 75 277 257 333 366 57 112 84 312 58 433-44 207-167 343-388 428-68 26-83 28-223 28-175 0-211-9-380-89-164-78-273-165-408-325-45-53-46-45-8 47 56 140 199 305 327 380 88 51 221 106 299 123 88 20 324 17 405-4 145-38 275-107 371-195 65-60 99-114 138-220l27-73 40 29c21 15 73 47 114 71s117 73 168 109l93 64-83 43c-175 87-295 181-384 298-85 113-123 219-138 392l-7 70 35-84c41-98 51-113 127-206 196-240 450-4e2 744-466 98-22 362-17 535 10 311 50 457 8 612-176 39-45 74-83 78-83 28 0 18 178-15 269-39 112-165 221-305 265-41 13-122 32-180 41s-145 23-194 31c-1e2 16-240 61-331 107-137 67-241 173-294 3e2-33 80-66 195-58 203 5 6 77-101 121-179 15-27 58-80 94-119 58-61 68-68 77-53 5 10 22 36 37 59 30 45 35 66 15 66-31 0-159 73-227 130-115 95-137 138-155 290l-6 55 29-52c94-166 283-306 482-359 91-24 261-22 362 4 154 41 313 147 348 233 13 30-12 99-83 229-121 223-247 351-432 436-79 36-241 77-351 88l-62 7-4-83c-4-89-30-170-49-151-5 5-17 60-25 122-26 197-66 274-242 456-64 66-119 121-123 123-3 1-16-30-28-70zm886-794c31-23 73-97 73-130 0-25-41-44-94-44-66 0-132 74-151 169l-7 33 75-4c56-2 83-9 104-24z" id="path3" style="fill:#fff"/><path d="m6912 6309c-8-12-12-22-10-23 2 0 14-10 27-21l23-20-7 35c-10 47-18 54-33 29z" id="path4" style="fill:#fff"/><path d="m6036 5364c-10-14-30-33-45-42-25-17-26-20-28-122-1-115-19-206-60-309-36-92-78-154-167-249-42-45-76-85-76-88 0-4 31-4 69-2 87 6 119 26 194 117 96 117 146 245 169 428 12 96 2 201-25 263l-12 29z" id="path5" style="fill:#fff"/><path d="m2454 4725c-9-50 29-168 62-194 15-12 33-21 40-21 26 0 64 23 64 39 0 28-131 211-151 211-4 0-11-16-15-35z" id="path6" style="fill:#fff"/></g></svg>